<svg xmlns="http://www.w3.org/2000/svg" width="320" height="240" viewBox="0 0 320 240" role="img" aria-label="Per-question outcome heatmap">
<style>
text { font-family: -apple-system, BlinkMacSystemFont, "Segoe UI", sans-serif; fill: #111827; }
.title { font-size: 22px; font-weight: 700; }
.tick { font-size: 11px; }
.value { font-size: 12px; font-weight: 650; }
.axis-label { font-size: 13px; font-weight: 650; }
</style>
<rect width="100%" height="100%" fill="#ffffff"/>
<text x="24" y="34" class="title">Per-question outcome heatmap</text>
<text x="190.0" y="66" transform="rotate(-45 190.0 66)" class="tick">debate-e-low-a2-r1</text><text x="210.0" y="66" transform="rotate(-45 210.0 66)" class="tick">sample-e-low-a3</text><text x="230.0" y="66" transform="rotate(-45 230.0 66)" class="tick">self-critic-e-low-r1</text><text x="250.0" y="66" transform="rotate(-45 250.0 66)" class="tick">solo-e-low</text><text x="270.0" y="66" transform="rotate(-45 270.0 66)" class="tick">supervisor-w-low-s-low-r1</text><text x="172" y="94" text-anchor="end" class="tick">66ea814c5544860edb5aa9fa [r1]</text><rect x="180" y="80" width="18" height="18" fill="#16a34a"><title>66ea814c5544860edb5aa9fa [r1] / debate-e-low-a2-r1</title></rect><rect x="200" y="80" width="18" height="18" fill="#16a34a"><title>66ea814c5544860edb5aa9fa [r1] / sample-e-low-a3</title></rect><rect x="220" y="80" width="18" height="18" fill="#16a34a"><title>66ea814c5544860edb5aa9fa [r1] / self-critic-e-low-r1</title></rect><rect x="240" y="80" width="18" height="18" fill="#dc2626"><title>66ea814c5544860edb5aa9fa [r1] / solo-e-low</title></rect><rect x="260" y="80" width="18" height="18" fill="#16a34a"><title>66ea814c5544860edb5aa9fa [r1] / supervisor-w-low-s-low-r1</title></rect><text x="172" y="114" text-anchor="end" class="tick">670147f7dc193e3fa8260419 [r1]</text><rect x="180" y="100" width="18" height="18" fill="#dc2626"><title>670147f7dc193e3fa8260419 [r1] / debate-e-low-a2-r1</title></rect><rect x="200" y="100" width="18" height="18" fill="#dc2626"><title>670147f7dc193e3fa8260419 [r1] / sample-e-low-a3</title></rect><rect x="220" y="100" width="18" height="18" fill="#dc2626"><title>670147f7dc193e3fa8260419 [r1] / self-critic-e-low-r1</title></rect><rect x="240" y="100" width="18" height="18" fill="#dc2626"><title>670147f7dc193e3fa8260419 [r1] / solo-e-low</title></rect><rect x="260" y="100" width="18" height="18" fill="#dc2626"><title>670147f7dc193e3fa8260419 [r1] / supervisor-w-low-s-low-r1</title></rect><text x="172" y="134" text-anchor="end" class="tick">6702db18a423c5b9f9c1c49c [r1]</text><rect x="180" y="120" width="18" height="18" fill="#dc2626"><title>6702db18a423c5b9f9c1c49c [r1] / debate-e-low-a2-r1</title></rect><rect x="200" y="120" width="18" height="18" fill="#dc2626"><title>6702db18a423c5b9f9c1c49c [r1] / sample-e-low-a3</title></rect><rect x="220" y="120" width="18" height="18" fill="#dc2626"><title>6702db18a423c5b9f9c1c49c [r1] / self-critic-e-low-r1</title></rect><rect x="240" y="120" width="18" height="18" fill="#dc2626"><title>6702db18a423c5b9f9c1c49c [r1] / solo-e-low</title></rect><rect x="260" y="120" width="18" height="18" fill="#dc2626"><title>6702db18a423c5b9f9c1c49c [r1] / supervisor-w-low-s-low-r1</title></rect><text x="172" y="154" text-anchor="end" class="tick">670f00dc79750a6c73259f4d [r1]</text><rect x="180" y="140" width="18" height="18" fill="#dc2626"><title>670f00dc79750a6c73259f4d [r1] / debate-e-low-a2-r1</title></rect><rect x="200" y="140" width="18" height="18" fill="#dc2626"><title>670f00dc79750a6c73259f4d [r1] / sample-e-low-a3</title></rect><rect x="220" y="140" width="18" height="18" fill="#dc2626"><title>670f00dc79750a6c73259f4d [r1] / self-critic-e-low-r1</title></rect><rect x="240" y="140" width="18" height="18" fill="#dc2626"><title>670f00dc79750a6c73259f4d [r1] / solo-e-low</title></rect><rect x="260" y="140" width="18" height="18" fill="#dc2626"><title>670f00dc79750a6c73259f4d [r1] / supervisor-w-low-s-low-r1</title></rect><text x="172" y="174" text-anchor="end" class="tick">671f449c879059a81a74468c [r1]</text><rect x="180" y="160" width="18" height="18" fill="#dc2626"><title>671f449c879059a81a74468c [r1] / debate-e-low-a2-r1</title></rect><rect x="200" y="160" width="18" height="18" fill="#dc2626"><title>671f449c879059a81a74468c [r1] / sample-e-low-a3</title></rect><rect x="220" y="160" width="18" height="18" fill="#dc2626"><title>671f449c879059a81a74468c [r1] / self-critic-e-low-r1</title></rect><rect x="240" y="160" width="18" height="18" fill="#16a34a"><title>671f449c879059a81a74468c [r1] / solo-e-low</title></rect><rect x="260" y="160" width="18" height="18" fill="#16a34a"><title>671f449c879059a81a74468c [r1] / supervisor-w-low-s-low-r1</title></rect>
</svg>
