<svg xmlns="http://www.w3.org/2000/svg" width="320" height="740" viewBox="0 0 320 740" role="img" aria-label="Per-question outcome heatmap">
<style>
text { font-family: -apple-system, BlinkMacSystemFont, "Segoe UI", sans-serif; fill: #111827; }
.title { font-size: 22px; font-weight: 700; }
.tick { font-size: 11px; }
.value { font-size: 12px; font-weight: 650; }
.axis-label { font-size: 13px; font-weight: 650; }
</style>
<rect width="100%" height="100%" fill="#ffffff"/>
<text x="24" y="34" class="title">Per-question outcome heatmap</text>
<text x="190.0" y="66" transform="rotate(-45 190.0 66)" class="tick">debate-3-answer</text><text x="210.0" y="66" transform="rotate(-45 210.0 66)" class="tick">debate-3-full</text><text x="230.0" y="66" transform="rotate(-45 230.0 66)" class="tick">sample-3</text><text x="250.0" y="66" transform="rotate(-45 250.0 66)" class="tick">sample-6</text><text x="270.0" y="66" transform="rotate(-45 270.0 66)" class="tick">solo</text><text x="172" y="94" text-anchor="end" class="tick">66e8967ae99ca52dd4b94441</text><rect x="180" y="80" width="18" height="18" fill="#dc2626"><title>66e8967ae99ca52dd4b94441 / debate-3-answer</title></rect><rect x="200" y="80" width="18" height="18" fill="#dc2626"><title>66e8967ae99ca52dd4b94441 / debate-3-full</title></rect><rect x="220" y="80" width="18" height="18" fill="#dc2626"><title>66e8967ae99ca52dd4b94441 / sample-3</title></rect><rect x="240" y="80" width="18" height="18" fill="#dc2626"><title>66e8967ae99ca52dd4b94441 / sample-6</title></rect><rect x="260" y="80" width="18" height="18" fill="#dc2626"><title>66e8967ae99ca52dd4b94441 / solo</title></rect><text x="172" y="114" text-anchor="end" class="tick">66e8d4736299517dd7a5da8c</text><rect x="180" y="100" width="18" height="18" fill="#dc2626"><title>66e8d4736299517dd7a5da8c / debate-3-answer</title></rect><rect x="200" y="100" width="18" height="18" fill="#dc2626"><title>66e8d4736299517dd7a5da8c / debate-3-full</title></rect><rect x="220" y="100" width="18" height="18" fill="#dc2626"><title>66e8d4736299517dd7a5da8c / sample-3</title></rect><rect x="240" y="100" width="18" height="18" fill="#dc2626"><title>66e8d4736299517dd7a5da8c / sample-6</title></rect><rect x="260" y="100" width="18" height="18" fill="#dc2626"><title>66e8d4736299517dd7a5da8c / solo</title></rect><text x="172" y="134" text-anchor="end" class="tick">66e9b92578e89514d9ab6093</text><rect x="180" y="120" width="18" height="18" fill="#dc2626"><title>66e9b92578e89514d9ab6093 / debate-3-answer</title></rect><rect x="200" y="120" width="18" height="18" fill="#dc2626"><title>66e9b92578e89514d9ab6093 / debate-3-full</title></rect><rect x="220" y="120" width="18" height="18" fill="#dc2626"><title>66e9b92578e89514d9ab6093 / sample-3</title></rect><rect x="240" y="120" width="18" height="18" fill="#dc2626"><title>66e9b92578e89514d9ab6093 / sample-6</title></rect><rect x="260" y="120" width="18" height="18" fill="#dc2626"><title>66e9b92578e89514d9ab6093 / solo</title></rect><text x="172" y="154" text-anchor="end" class="tick">66ec8ab4b489956467209e0c</text><rect x="180" y="140" width="18" height="18" fill="#dc2626"><title>66ec8ab4b489956467209e0c / debate-3-answer</title></rect><rect x="200" y="140" width="18" height="18" fill="#dc2626"><title>66ec8ab4b489956467209e0c / debate-3-full</title></rect><rect x="220" y="140" width="18" height="18" fill="#dc2626"><title>66ec8ab4b489956467209e0c / sample-3</title></rect><rect x="240" y="140" width="18" height="18" fill="#dc2626"><title>66ec8ab4b489956467209e0c / sample-6</title></rect><rect x="260" y="140" width="18" height="18" fill="#dc2626"><title>66ec8ab4b489956467209e0c / solo</title></rect><text x="172" y="174" text-anchor="end" class="tick">66ee1745f77f20ac4db1fd7b</text><rect x="180" y="160" width="18" height="18" fill="#dc2626"><title>66ee1745f77f20ac4db1fd7b / debate-3-answer</title></rect><rect x="200" y="160" width="18" height="18" fill="#dc2626"><title>66ee1745f77f20ac4db1fd7b / debate-3-full</title></rect><rect x="220" y="160" width="18" height="18" fill="#dc2626"><title>66ee1745f77f20ac4db1fd7b / sample-3</title></rect><rect x="240" y="160" width="18" height="18" fill="#dc2626"><title>66ee1745f77f20ac4db1fd7b / sample-6</title></rect><rect x="260" y="160" width="18" height="18" fill="#dc2626"><title>66ee1745f77f20ac4db1fd7b / solo</title></rect><text x="172" y="194" text-anchor="end" class="tick">66f0247d8777dcd82dba8253</text><rect x="180" y="180" width="18" height="18" fill="#dc2626"><title>66f0247d8777dcd82dba8253 / debate-3-answer</title></rect><rect x="200" y="180" width="18" height="18" fill="#dc2626"><title>66f0247d8777dcd82dba8253 / debate-3-full</title></rect><rect x="220" y="180" width="18" height="18" fill="#dc2626"><title>66f0247d8777dcd82dba8253 / sample-3</title></rect><rect x="240" y="180" width="18" height="18" fill="#dc2626"><title>66f0247d8777dcd82dba8253 / sample-6</title></rect><rect x="260" y="180" width="18" height="18" fill="#dc2626"><title>66f0247d8777dcd82dba8253 / solo</title></rect><text x="172" y="214" text-anchor="end" class="tick">670010ff77983eff561814b2</text><rect x="180" y="200" width="18" height="18" fill="#dc2626"><title>670010ff77983eff561814b2 / debate-3-answer</title></rect><rect x="200" y="200" width="18" height="18" fill="#dc2626"><title>670010ff77983eff561814b2 / debate-3-full</title></rect><rect x="220" y="200" width="18" height="18" fill="#dc2626"><title>670010ff77983eff561814b2 / sample-3</title></rect><rect x="240" y="200" width="18" height="18" fill="#dc2626"><title>670010ff77983eff561814b2 / sample-6</title></rect><rect x="260" y="200" width="18" height="18" fill="#dc2626"><title>670010ff77983eff561814b2 / solo</title></rect><text x="172" y="234" text-anchor="end" class="tick">6701c34caf50fa52ed36ff06</text><rect x="180" y="220" width="18" height="18" fill="#dc2626"><title>6701c34caf50fa52ed36ff06 / debate-3-answer</title></rect><rect x="200" y="220" width="18" height="18" fill="#dc2626"><title>6701c34caf50fa52ed36ff06 / debate-3-full</title></rect><rect x="220" y="220" width="18" height="18" fill="#dc2626"><title>6701c34caf50fa52ed36ff06 / sample-3</title></rect><rect x="240" y="220" width="18" height="18" fill="#dc2626"><title>6701c34caf50fa52ed36ff06 / sample-6</title></rect><rect x="260" y="220" width="18" height="18" fill="#dc2626"><title>6701c34caf50fa52ed36ff06 / solo</title></rect><text x="172" y="254" text-anchor="end" class="tick">67057e2f6ab7d0d880663551</text><rect x="180" y="240" width="18" height="18" fill="#dc2626"><title>67057e2f6ab7d0d880663551 / debate-3-answer</title></rect><rect x="200" y="240" width="18" height="18" fill="#dc2626"><title>67057e2f6ab7d0d880663551 / debate-3-full</title></rect><rect x="220" y="240" width="18" height="18" fill="#dc2626"><title>67057e2f6ab7d0d880663551 / sample-3</title></rect><rect x="240" y="240" width="18" height="18" fill="#dc2626"><title>67057e2f6ab7d0d880663551 / sample-6</title></rect><rect x="260" y="240" width="18" height="18" fill="#dc2626"><title>67057e2f6ab7d0d880663551 / solo</title></rect><text x="172" y="274" text-anchor="end" class="tick">670fb58f2ca6bea76e9354a7</text><rect x="180" y="260" width="18" height="18" fill="#dc2626"><title>670fb58f2ca6bea76e9354a7 / debate-3-answer</title></rect><rect x="200" y="260" width="18" height="18" fill="#dc2626"><title>670fb58f2ca6bea76e9354a7 / debate-3-full</title></rect><rect x="220" y="260" width="18" height="18" fill="#dc2626"><title>670fb58f2ca6bea76e9354a7 / sample-3</title></rect><rect x="240" y="260" width="18" height="18" fill="#dc2626"><title>670fb58f2ca6bea76e9354a7 / sample-6</title></rect><rect x="260" y="260" width="18" height="18" fill="#dc2626"><title>670fb58f2ca6bea76e9354a7 / solo</title></rect><text x="172" y="294" text-anchor="end" class="tick">671d91bcad7fb0793a0e93bd</text><rect x="180" y="280" width="18" height="18" fill="#16a34a"><title>671d91bcad7fb0793a0e93bd / debate-3-answer</title></rect><rect x="200" y="280" width="18" height="18" fill="#dc2626"><title>671d91bcad7fb0793a0e93bd / debate-3-full</title></rect><rect x="220" y="280" width="18" height="18" fill="#dc2626"><title>671d91bcad7fb0793a0e93bd / sample-3</title></rect><rect x="240" y="280" width="18" height="18" fill="#dc2626"><title>671d91bcad7fb0793a0e93bd / sample-6</title></rect><rect x="260" y="280" width="18" height="18" fill="#dc2626"><title>671d91bcad7fb0793a0e93bd / solo</title></rect><text x="172" y="314" text-anchor="end" class="tick">671d9e9d29e7fde7166e474d</text><rect x="180" y="300" width="18" height="18" fill="#dc2626"><title>671d9e9d29e7fde7166e474d / debate-3-answer</title></rect><rect x="200" y="300" width="18" height="18" fill="#dc2626"><title>671d9e9d29e7fde7166e474d / debate-3-full</title></rect><rect x="220" y="300" width="18" height="18" fill="#dc2626"><title>671d9e9d29e7fde7166e474d / sample-3</title></rect><rect x="240" y="300" width="18" height="18" fill="#dc2626"><title>671d9e9d29e7fde7166e474d / sample-6</title></rect><rect x="260" y="300" width="18" height="18" fill="#dc2626"><title>671d9e9d29e7fde7166e474d / solo</title></rect><text x="172" y="334" text-anchor="end" class="tick">671eb856c357c6b4f73592dd</text><rect x="180" y="320" width="18" height="18" fill="#dc2626"><title>671eb856c357c6b4f73592dd / debate-3-answer</title></rect><rect x="200" y="320" width="18" height="18" fill="#dc2626"><title>671eb856c357c6b4f73592dd / debate-3-full</title></rect><rect x="220" y="320" width="18" height="18" fill="#dc2626"><title>671eb856c357c6b4f73592dd / sample-3</title></rect><rect x="240" y="320" width="18" height="18" fill="#dc2626"><title>671eb856c357c6b4f73592dd / sample-6</title></rect><rect x="260" y="320" width="18" height="18" fill="#dc2626"><title>671eb856c357c6b4f73592dd / solo</title></rect><text x="172" y="354" text-anchor="end" class="tick">671f6889490be3e9a159f485</text><rect x="180" y="340" width="18" height="18" fill="#dc2626"><title>671f6889490be3e9a159f485 / debate-3-answer</title></rect><rect x="200" y="340" width="18" height="18" fill="#dc2626"><title>671f6889490be3e9a159f485 / debate-3-full</title></rect><rect x="220" y="340" width="18" height="18" fill="#dc2626"><title>671f6889490be3e9a159f485 / sample-3</title></rect><rect x="240" y="340" width="18" height="18" fill="#dc2626"><title>671f6889490be3e9a159f485 / sample-6</title></rect><rect x="260" y="340" width="18" height="18" fill="#dc2626"><title>671f6889490be3e9a159f485 / solo</title></rect><text x="172" y="374" text-anchor="end" class="tick">672455ce7a14971607e3d9f0</text><rect x="180" y="360" width="18" height="18" fill="#dc2626"><title>672455ce7a14971607e3d9f0 / debate-3-answer</title></rect><rect x="200" y="360" width="18" height="18" fill="#dc2626"><title>672455ce7a14971607e3d9f0 / debate-3-full</title></rect><rect x="220" y="360" width="18" height="18" fill="#dc2626"><title>672455ce7a14971607e3d9f0 / sample-3</title></rect><rect x="240" y="360" width="18" height="18" fill="#dc2626"><title>672455ce7a14971607e3d9f0 / sample-6</title></rect><rect x="260" y="360" width="18" height="18" fill="#16a34a"><title>672455ce7a14971607e3d9f0 / solo</title></rect><text x="172" y="394" text-anchor="end" class="tick">6725592b4ee96e5b68bb383b</text><rect x="180" y="380" width="18" height="18" fill="#dc2626"><title>6725592b4ee96e5b68bb383b / debate-3-answer</title></rect><rect x="200" y="380" width="18" height="18" fill="#dc2626"><title>6725592b4ee96e5b68bb383b / debate-3-full</title></rect><rect x="220" y="380" width="18" height="18" fill="#dc2626"><title>6725592b4ee96e5b68bb383b / sample-3</title></rect><rect x="240" y="380" width="18" height="18" fill="#dc2626"><title>6725592b4ee96e5b68bb383b / sample-6</title></rect><rect x="260" y="380" width="18" height="18" fill="#dc2626"><title>6725592b4ee96e5b68bb383b / solo</title></rect><text x="172" y="414" text-anchor="end" class="tick">67260a2a8f9ce8a272ed4e9a</text><rect x="180" y="400" width="18" height="18" fill="#dc2626"><title>67260a2a8f9ce8a272ed4e9a / debate-3-answer</title></rect><rect x="200" y="400" width="18" height="18" fill="#dc2626"><title>67260a2a8f9ce8a272ed4e9a / debate-3-full</title></rect><rect x="220" y="400" width="18" height="18" fill="#dc2626"><title>67260a2a8f9ce8a272ed4e9a / sample-3</title></rect><rect x="240" y="400" width="18" height="18" fill="#dc2626"><title>67260a2a8f9ce8a272ed4e9a / sample-6</title></rect><rect x="260" y="400" width="18" height="18" fill="#dc2626"><title>67260a2a8f9ce8a272ed4e9a / solo</title></rect><text x="172" y="434" text-anchor="end" class="tick">6728b69ce3c03cd66bc102fe</text><rect x="180" y="420" width="18" height="18" fill="#dc2626"><title>6728b69ce3c03cd66bc102fe / debate-3-answer</title></rect><rect x="200" y="420" width="18" height="18" fill="#dc2626"><title>6728b69ce3c03cd66bc102fe / debate-3-full</title></rect><rect x="220" y="420" width="18" height="18" fill="#dc2626"><title>6728b69ce3c03cd66bc102fe / sample-3</title></rect><rect x="240" y="420" width="18" height="18" fill="#dc2626"><title>6728b69ce3c03cd66bc102fe / sample-6</title></rect><rect x="260" y="420" width="18" height="18" fill="#dc2626"><title>6728b69ce3c03cd66bc102fe / solo</title></rect><text x="172" y="454" text-anchor="end" class="tick">672d5a80f1800d2d85750a71</text><rect x="180" y="440" width="18" height="18" fill="#dc2626"><title>672d5a80f1800d2d85750a71 / debate-3-answer</title></rect><rect x="200" y="440" width="18" height="18" fill="#dc2626"><title>672d5a80f1800d2d85750a71 / debate-3-full</title></rect><rect x="220" y="440" width="18" height="18" fill="#dc2626"><title>672d5a80f1800d2d85750a71 / sample-3</title></rect><rect x="240" y="440" width="18" height="18" fill="#dc2626"><title>672d5a80f1800d2d85750a71 / sample-6</title></rect><rect x="260" y="440" width="18" height="18" fill="#dc2626"><title>672d5a80f1800d2d85750a71 / solo</title></rect><text x="172" y="474" text-anchor="end" class="tick">672fc00e13e5fbd332372f3f</text><rect x="180" y="460" width="18" height="18" fill="#dc2626"><title>672fc00e13e5fbd332372f3f / debate-3-answer</title></rect><rect x="200" y="460" width="18" height="18" fill="#dc2626"><title>672fc00e13e5fbd332372f3f / debate-3-full</title></rect><rect x="220" y="460" width="18" height="18" fill="#dc2626"><title>672fc00e13e5fbd332372f3f / sample-3</title></rect><rect x="240" y="460" width="18" height="18" fill="#dc2626"><title>672fc00e13e5fbd332372f3f / sample-6</title></rect><rect x="260" y="460" width="18" height="18" fill="#dc2626"><title>672fc00e13e5fbd332372f3f / solo</title></rect><text x="172" y="494" text-anchor="end" class="tick">67315c7e7fcf9ea998467bd6</text><rect x="180" y="480" width="18" height="18" fill="#dc2626"><title>67315c7e7fcf9ea998467bd6 / debate-3-answer</title></rect><rect x="200" y="480" width="18" height="18" fill="#dc2626"><title>67315c7e7fcf9ea998467bd6 / debate-3-full</title></rect><rect x="220" y="480" width="18" height="18" fill="#dc2626"><title>67315c7e7fcf9ea998467bd6 / sample-3</title></rect><rect x="240" y="480" width="18" height="18" fill="#dc2626"><title>67315c7e7fcf9ea998467bd6 / sample-6</title></rect><rect x="260" y="480" width="18" height="18" fill="#dc2626"><title>67315c7e7fcf9ea998467bd6 / solo</title></rect><text x="172" y="514" text-anchor="end" class="tick">6731fa3bb08cf72258a21348</text><rect x="180" y="500" width="18" height="18" fill="#dc2626"><title>6731fa3bb08cf72258a21348 / debate-3-answer</title></rect><rect x="200" y="500" width="18" height="18" fill="#dc2626"><title>6731fa3bb08cf72258a21348 / debate-3-full</title></rect><rect x="220" y="500" width="18" height="18" fill="#dc2626"><title>6731fa3bb08cf72258a21348 / sample-3</title></rect><rect x="240" y="500" width="18" height="18" fill="#dc2626"><title>6731fa3bb08cf72258a21348 / sample-6</title></rect><rect x="260" y="500" width="18" height="18" fill="#dc2626"><title>6731fa3bb08cf72258a21348 / solo</title></rect><text x="172" y="534" text-anchor="end" class="tick">6738d62e37f41423112a76ba</text><rect x="180" y="520" width="18" height="18" fill="#dc2626"><title>6738d62e37f41423112a76ba / debate-3-answer</title></rect><rect x="200" y="520" width="18" height="18" fill="#dc2626"><title>6738d62e37f41423112a76ba / debate-3-full</title></rect><rect x="220" y="520" width="18" height="18" fill="#dc2626"><title>6738d62e37f41423112a76ba / sample-3</title></rect><rect x="240" y="520" width="18" height="18" fill="#dc2626"><title>6738d62e37f41423112a76ba / sample-6</title></rect><rect x="260" y="520" width="18" height="18" fill="#dc2626"><title>6738d62e37f41423112a76ba / solo</title></rect><text x="172" y="554" text-anchor="end" class="tick">67398780bcaf1e028b8576a2</text><rect x="180" y="540" width="18" height="18" fill="#dc2626"><title>67398780bcaf1e028b8576a2 / debate-3-answer</title></rect><rect x="200" y="540" width="18" height="18" fill="#dc2626"><title>67398780bcaf1e028b8576a2 / debate-3-full</title></rect><rect x="220" y="540" width="18" height="18" fill="#dc2626"><title>67398780bcaf1e028b8576a2 / sample-3</title></rect><rect x="240" y="540" width="18" height="18" fill="#dc2626"><title>67398780bcaf1e028b8576a2 / sample-6</title></rect><rect x="260" y="540" width="18" height="18" fill="#dc2626"><title>67398780bcaf1e028b8576a2 / solo</title></rect><text x="172" y="574" text-anchor="end" class="tick">6739e06f5a81384176dd28cd</text><rect x="180" y="560" width="18" height="18" fill="#dc2626"><title>6739e06f5a81384176dd28cd / debate-3-answer</title></rect><rect x="200" y="560" width="18" height="18" fill="#dc2626"><title>6739e06f5a81384176dd28cd / debate-3-full</title></rect><rect x="220" y="560" width="18" height="18" fill="#dc2626"><title>6739e06f5a81384176dd28cd / sample-3</title></rect><rect x="240" y="560" width="18" height="18" fill="#dc2626"><title>6739e06f5a81384176dd28cd / sample-6</title></rect><rect x="260" y="560" width="18" height="18" fill="#dc2626"><title>6739e06f5a81384176dd28cd / solo</title></rect><text x="172" y="594" text-anchor="end" class="tick">673ad4214ff8ec86c1487ed3</text><rect x="180" y="580" width="18" height="18" fill="#dc2626"><title>673ad4214ff8ec86c1487ed3 / debate-3-answer</title></rect><rect x="200" y="580" width="18" height="18" fill="#dc2626"><title>673ad4214ff8ec86c1487ed3 / debate-3-full</title></rect><rect x="220" y="580" width="18" height="18" fill="#dc2626"><title>673ad4214ff8ec86c1487ed3 / sample-3</title></rect><rect x="240" y="580" width="18" height="18" fill="#dc2626"><title>673ad4214ff8ec86c1487ed3 / sample-6</title></rect><rect x="260" y="580" width="18" height="18" fill="#dc2626"><title>673ad4214ff8ec86c1487ed3 / solo</title></rect><text x="172" y="614" text-anchor="end" class="tick">673e37db8d2811de2a83c135</text><rect x="180" y="600" width="18" height="18" fill="#dc2626"><title>673e37db8d2811de2a83c135 / debate-3-answer</title></rect><rect x="200" y="600" width="18" height="18" fill="#dc2626"><title>673e37db8d2811de2a83c135 / debate-3-full</title></rect><rect x="220" y="600" width="18" height="18" fill="#dc2626"><title>673e37db8d2811de2a83c135 / sample-3</title></rect><rect x="240" y="600" width="18" height="18" fill="#dc2626"><title>673e37db8d2811de2a83c135 / sample-6</title></rect><rect x="260" y="600" width="18" height="18" fill="#dc2626"><title>673e37db8d2811de2a83c135 / solo</title></rect><text x="172" y="634" text-anchor="end" class="tick">673fce92f7f86aa77259187a</text><rect x="180" y="620" width="18" height="18" fill="#dc2626"><title>673fce92f7f86aa77259187a / debate-3-answer</title></rect><rect x="200" y="620" width="18" height="18" fill="#dc2626"><title>673fce92f7f86aa77259187a / debate-3-full</title></rect><rect x="220" y="620" width="18" height="18" fill="#dc2626"><title>673fce92f7f86aa77259187a / sample-3</title></rect><rect x="240" y="620" width="18" height="18" fill="#dc2626"><title>673fce92f7f86aa77259187a / sample-6</title></rect><rect x="260" y="620" width="18" height="18" fill="#dc2626"><title>673fce92f7f86aa77259187a / solo</title></rect><text x="172" y="654" text-anchor="end" class="tick">677940d11be12d785a89f486</text><rect x="180" y="640" width="18" height="18" fill="#dc2626"><title>677940d11be12d785a89f486 / debate-3-answer</title></rect><rect x="200" y="640" width="18" height="18" fill="#dc2626"><title>677940d11be12d785a89f486 / debate-3-full</title></rect><rect x="220" y="640" width="18" height="18" fill="#dc2626"><title>677940d11be12d785a89f486 / sample-3</title></rect><rect x="240" y="640" width="18" height="18" fill="#dc2626"><title>677940d11be12d785a89f486 / sample-6</title></rect><rect x="260" y="640" width="18" height="18" fill="#dc2626"><title>677940d11be12d785a89f486 / solo</title></rect><text x="172" y="674" text-anchor="end" class="tick">67a69b0bc85a56ef94b67f1e</text><rect x="180" y="660" width="18" height="18" fill="#dc2626"><title>67a69b0bc85a56ef94b67f1e / debate-3-answer</title></rect><rect x="200" y="660" width="18" height="18" fill="#dc2626"><title>67a69b0bc85a56ef94b67f1e / debate-3-full</title></rect><rect x="220" y="660" width="18" height="18" fill="#dc2626"><title>67a69b0bc85a56ef94b67f1e / sample-3</title></rect><rect x="240" y="660" width="18" height="18" fill="#dc2626"><title>67a69b0bc85a56ef94b67f1e / sample-6</title></rect><rect x="260" y="660" width="18" height="18" fill="#dc2626"><title>67a69b0bc85a56ef94b67f1e / solo</title></rect>
</svg>
