<svg xmlns="http://www.w3.org/2000/svg" width="920" height="420" viewBox="0 0 920 420" role="img" aria-label="Planned-job accuracy by condition">
<style>
text { font-family: -apple-system, BlinkMacSystemFont, "Segoe UI", sans-serif; fill: #111827; }
.title { font-size: 22px; font-weight: 700; }
.tick { font-size: 11px; }
.value { font-size: 12px; font-weight: 650; }
.axis-label { font-size: 13px; font-weight: 650; }
</style>
<rect width="100%" height="100%" fill="#ffffff"/>
<text x="24" y="34" class="title">Planned-job accuracy by condition</text>
<rect x="82.0" y="350.0" width="-1.7" height="0.0" fill="#2563eb"/><rect x="104.3" y="350.0" width="-1.7" height="0.0" fill="#16a34a"/><rect x="126.6" y="350.0" width="-1.7" height="0.0" fill="#dc2626"/><rect x="148.9" y="350.0" width="-1.7" height="0.0" fill="#9333ea"/><rect x="171.1" y="350.0" width="-1.7" height="0.0" fill="#ea580c"/><rect x="193.4" y="350.0" width="-1.7" height="0.0" fill="#0891b2"/><rect x="215.7" y="350.0" width="-1.7" height="0.0" fill="#4b5563"/><rect x="238.0" y="350.0" width="-1.7" height="0.0" fill="#2563eb"/><rect x="260.3" y="350.0" width="-1.7" height="0.0" fill="#16a34a"/><rect x="282.6" y="350.0" width="-1.7" height="0.0" fill="#dc2626"/><rect x="304.9" y="308.0" width="-1.7" height="42.0" fill="#9333ea"/><rect x="327.1" y="273.0" width="-1.7" height="77.0" fill="#ea580c"/><rect x="349.4" y="280.0" width="-1.7" height="70.0" fill="#0891b2"/><rect x="371.7" y="336.0" width="-1.7" height="14.0" fill="#4b5563"/><rect x="394.0" y="336.0" width="-1.7" height="14.0" fill="#2563eb"/><rect x="416.3" y="336.0" width="-1.7" height="14.0" fill="#16a34a"/><rect x="438.6" y="245.0" width="-1.7" height="105.0" fill="#dc2626"/><rect x="460.9" y="287.0" width="-1.7" height="63.0" fill="#9333ea"/><rect x="483.1" y="287.0" width="-1.7" height="63.0" fill="#ea580c"/><rect x="505.4" y="343.0" width="-1.7" height="7.0" fill="#0891b2"/><rect x="527.7" y="350.0" width="-1.7" height="0.0" fill="#4b5563"/><rect x="550.0" y="336.0" width="-1.7" height="14.0" fill="#2563eb"/><rect x="572.3" y="280.0" width="-1.7" height="70.0" fill="#16a34a"/><rect x="594.6" y="322.0" width="-1.7" height="28.0" fill="#dc2626"/><rect x="616.9" y="301.0" width="-1.7" height="49.0" fill="#9333ea"/><rect x="639.1" y="343.0" width="-1.7" height="7.0" fill="#ea580c"/><rect x="661.4" y="259.0" width="-1.7" height="91.0" fill="#0891b2"/><rect x="683.7" y="266.0" width="-1.7" height="84.0" fill="#4b5563"/><rect x="706.0" y="273.0" width="-1.7" height="77.0" fill="#2563eb"/><rect x="728.3" y="287.0" width="-1.7" height="63.0" fill="#16a34a"/><rect x="750.6" y="287.0" width="-1.7" height="63.0" fill="#dc2626"/><rect x="772.9" y="287.0" width="-1.7" height="63.0" fill="#9333ea"/><rect x="795.1" y="280.0" width="-1.7" height="70.0" fill="#ea580c"/><rect x="817.4" y="329.0" width="-1.7" height="21.0" fill="#0891b2"/><rect x="839.7" y="336.0" width="-1.7" height="14.0" fill="#4b5563"/><text x="81.1" y="342.0" text-anchor="middle" class="value">0%</text><text x="81.1" y="390" text-anchor="middle" class="tick">debate-e-medium-a3-r1</text><text x="103.4" y="342.0" text-anchor="middle" class="value">0%</text><text x="103.4" y="390" text-anchor="middle" class="tick">debate-e-medium-a3-r3</text><text x="125.7" y="342.0" text-anchor="middle" class="value">0%</text><text x="125.7" y="390" text-anchor="middle" class="tick">debate-e-medium-a6-r1</text><text x="148.0" y="342.0" text-anchor="middle" class="value">0%</text><text x="148.0" y="390" text-anchor="middle" class="tick">debate-e-medium-a9-r1</text><text x="170.3" y="342.0" text-anchor="middle" class="value">0%</text><text x="170.3" y="390" text-anchor="middle" class="tick">debate-e-medium-a9-r3</text><text x="192.6" y="342.0" text-anchor="middle" class="value">0%</text><text x="192.6" y="390" text-anchor="middle" class="tick">debate-e-none-a3-r1</text><text x="214.9" y="342.0" text-anchor="middle" class="value">0%</text><text x="214.9" y="390" text-anchor="middle" class="tick">debate-e-none-a3-r3</text><text x="237.1" y="342.0" text-anchor="middle" class="value">0%</text><text x="237.1" y="390" text-anchor="middle" class="tick">debate-e-none-a6-r1</text><text x="259.4" y="342.0" text-anchor="middle" class="value">0%</text><text x="259.4" y="390" text-anchor="middle" class="tick">debate-e-none-a6-r3</text><text x="281.7" y="342.0" text-anchor="middle" class="value">0%</text><text x="281.7" y="390" text-anchor="middle" class="tick">debate-e-none-a9-r1</text><text x="304.0" y="300.0" text-anchor="middle" class="value">15%</text><text x="304.0" y="390" text-anchor="middle" class="tick">sample-e-medium-a1</text><text x="326.3" y="265.0" text-anchor="middle" class="value">28%</text><text x="326.3" y="390" text-anchor="middle" class="tick">sample-e-medium-a6</text><text x="348.6" y="272.0" text-anchor="middle" class="value">25%</text><text x="348.6" y="390" text-anchor="middle" class="tick">sample-e-medium-a9</text><text x="370.9" y="328.0" text-anchor="middle" class="value">5%</text><text x="370.9" y="390" text-anchor="middle" class="tick">sample-e-none-a1</text><text x="393.1" y="328.0" text-anchor="middle" class="value">5%</text><text x="393.1" y="390" text-anchor="middle" class="tick">sample-e-none-a6</text><text x="415.4" y="328.0" text-anchor="middle" class="value">5%</text><text x="415.4" y="390" text-anchor="middle" class="tick">sample-e-none-a9</text><text x="437.7" y="237.0" text-anchor="middle" class="value">38%</text><text x="437.7" y="390" text-anchor="middle" class="tick">self-critic-e-medium-r1</text><text x="460.0" y="279.0" text-anchor="middle" class="value">22%</text><text x="460.0" y="390" text-anchor="middle" class="tick">self-critic-e-medium-r3</text><text x="482.3" y="279.0" text-anchor="middle" class="value">22%</text><text x="482.3" y="390" text-anchor="middle" class="tick">self-critic-e-medium-r5</text><text x="504.6" y="335.0" text-anchor="middle" class="value">2%</text><text x="504.6" y="390" text-anchor="middle" class="tick">self-critic-e-none-r1</text><text x="526.9" y="342.0" text-anchor="middle" class="value">0%</text><text x="526.9" y="390" text-anchor="middle" class="tick">self-critic-e-none-r5</text><text x="549.1" y="328.0" text-anchor="middle" class="value">5%</text><text x="549.1" y="390" text-anchor="middle" class="tick">self-critic-e-none-r9</text><text x="571.4" y="272.0" text-anchor="middle" class="value">25%</text><text x="571.4" y="390" text-anchor="middle" class="tick">solo-e-high</text><text x="593.7" y="314.0" text-anchor="middle" class="value">10%</text><text x="593.7" y="390" text-anchor="middle" class="tick">solo-e-low</text><text x="616.0" y="293.0" text-anchor="middle" class="value">18%</text><text x="616.0" y="390" text-anchor="middle" class="tick">solo-e-medium</text><text x="638.3" y="335.0" text-anchor="middle" class="value">2%</text><text x="638.3" y="390" text-anchor="middle" class="tick">solo-e-none</text><text x="660.6" y="251.0" text-anchor="middle" class="value">32%</text><text x="660.6" y="390" text-anchor="middle" class="tick">solo-e-xhigh</text><text x="682.9" y="258.0" text-anchor="middle" class="value">30%</text><text x="682.9" y="390" text-anchor="middle" class="tick">supervisor-w-high-s-high-r2</text><text x="705.1" y="265.0" text-anchor="middle" class="value">28%</text><text x="705.1" y="390" text-anchor="middle" class="tick">supervisor-w-high-s-high-r5</text><text x="727.4" y="279.0" text-anchor="middle" class="value">22%</text><text x="727.4" y="390" text-anchor="middle" class="tick">supervisor-w-high-s-low-r5</text><text x="749.7" y="279.0" text-anchor="middle" class="value">22%</text><text x="749.7" y="390" text-anchor="middle" class="tick">supervisor-w-low-s-high-r5</text><text x="772.0" y="279.0" text-anchor="middle" class="value">22%</text><text x="772.0" y="390" text-anchor="middle" class="tick">supervisor-w-medium-s-medium-r2</text><text x="794.3" y="272.0" text-anchor="middle" class="value">25%</text><text x="794.3" y="390" text-anchor="middle" class="tick">supervisor-w-medium-s-medium-r5</text><text x="816.6" y="321.0" text-anchor="middle" class="value">8%</text><text x="816.6" y="390" text-anchor="middle" class="tick">supervisor-w-none-s-none-r2</text><text x="838.9" y="328.0" text-anchor="middle" class="value">5%</text><text x="838.9" y="390" text-anchor="middle" class="tick">supervisor-w-none-s-none-r5</text><line x1="70" y1="350" x2="850" y2="350" stroke="#111827"/><line x1="70" y1="70" x2="70" y2="350" stroke="#111827"/>
</svg>
