<svg xmlns="http://www.w3.org/2000/svg" width="920" height="460" viewBox="0 0 920 460" role="img" aria-label="Cost vs planned-job accuracy">
<style>
text { font-family: -apple-system, BlinkMacSystemFont, "Segoe UI", sans-serif; fill: #111827; }
.title { font-size: 22px; font-weight: 700; }
.tick { font-size: 11px; }
.value { font-size: 12px; font-weight: 650; }
.axis-label { font-size: 13px; font-weight: 650; }
</style>
<rect width="100%" height="100%" fill="#ffffff"/>
<text x="24" y="34" class="title">Cost vs planned-job accuracy</text>
<line x1="80" y1="380" x2="840" y2="380" stroke="#111827"/><line x1="80" y1="80" x2="80" y2="380" stroke="#111827"/><circle cx="80.0" cy="380.0" r="7" fill="#2563eb"><title>debate-e-medium-a3-r1</title></circle><text x="90.0" y="372.0" class="tick">debate-e-medium-a3-r1</text><circle cx="80.0" cy="380.0" r="7" fill="#16a34a"><title>debate-e-medium-a3-r3</title></circle><text x="90.0" y="372.0" class="tick">debate-e-medium-a3-r3</text><circle cx="80.0" cy="380.0" r="7" fill="#dc2626"><title>debate-e-medium-a6-r1</title></circle><text x="90.0" y="372.0" class="tick">debate-e-medium-a6-r1</text><circle cx="80.0" cy="380.0" r="7" fill="#9333ea"><title>debate-e-medium-a9-r1</title></circle><text x="90.0" y="372.0" class="tick">debate-e-medium-a9-r1</text><circle cx="80.0" cy="380.0" r="7" fill="#ea580c"><title>debate-e-medium-a9-r3</title></circle><text x="90.0" y="372.0" class="tick">debate-e-medium-a9-r3</text><circle cx="80.0" cy="380.0" r="7" fill="#0891b2"><title>debate-e-none-a3-r1</title></circle><text x="90.0" y="372.0" class="tick">debate-e-none-a3-r1</text><circle cx="80.0" cy="380.0" r="7" fill="#4b5563"><title>debate-e-none-a3-r3</title></circle><text x="90.0" y="372.0" class="tick">debate-e-none-a3-r3</text><circle cx="80.0" cy="380.0" r="7" fill="#2563eb"><title>debate-e-none-a6-r1</title></circle><text x="90.0" y="372.0" class="tick">debate-e-none-a6-r1</text><circle cx="80.0" cy="380.0" r="7" fill="#16a34a"><title>debate-e-none-a6-r3</title></circle><text x="90.0" y="372.0" class="tick">debate-e-none-a6-r3</text><circle cx="80.0" cy="380.0" r="7" fill="#dc2626"><title>debate-e-none-a9-r1</title></circle><text x="90.0" y="372.0" class="tick">debate-e-none-a9-r1</text><circle cx="153.0" cy="335.0" r="7" fill="#9333ea"><title>sample-e-medium-a1</title></circle><text x="163.0" y="327.0" class="tick">sample-e-medium-a1</text><circle cx="604.9" cy="297.5" r="7" fill="#ea580c"><title>sample-e-medium-a6</title></circle><text x="614.9" y="289.5" class="tick">sample-e-medium-a6</text><circle cx="840.0" cy="305.0" r="7" fill="#0891b2"><title>sample-e-medium-a9</title></circle><text x="850.0" y="297.0" class="tick">sample-e-medium-a9</text><circle cx="86.6" cy="365.0" r="7" fill="#4b5563"><title>sample-e-none-a1</title></circle><text x="96.6" y="357.0" class="tick">sample-e-none-a1</text><circle cx="147.6" cy="365.0" r="7" fill="#2563eb"><title>sample-e-none-a6</title></circle><text x="157.6" y="357.0" class="tick">sample-e-none-a6</text><circle cx="178.7" cy="365.0" r="7" fill="#16a34a"><title>sample-e-none-a9</title></circle><text x="188.7" y="357.0" class="tick">sample-e-none-a9</text><circle cx="196.6" cy="267.5" r="7" fill="#dc2626"><title>self-critic-e-medium-r1</title></circle><text x="206.6" y="259.5" class="tick">self-critic-e-medium-r1</text><circle cx="302.6" cy="312.5" r="7" fill="#9333ea"><title>self-critic-e-medium-r3</title></circle><text x="312.6" y="304.5" class="tick">self-critic-e-medium-r3</text><circle cx="396.1" cy="312.5" r="7" fill="#ea580c"><title>self-critic-e-medium-r5</title></circle><text x="406.1" y="304.5" class="tick">self-critic-e-medium-r5</text><circle cx="90.4" cy="372.5" r="7" fill="#0891b2"><title>self-critic-e-none-r1</title></circle><text x="100.4" y="364.5" class="tick">self-critic-e-none-r1</text><circle cx="109.2" cy="380.0" r="7" fill="#4b5563"><title>self-critic-e-none-r5</title></circle><text x="119.2" y="372.0" class="tick">self-critic-e-none-r5</text><circle cx="129.4" cy="365.0" r="7" fill="#2563eb"><title>self-critic-e-none-r9</title></circle><text x="139.4" y="357.0" class="tick">self-critic-e-none-r9</text><circle cx="214.2" cy="305.0" r="7" fill="#16a34a"><title>solo-e-high</title></circle><text x="224.2" y="297.0" class="tick">solo-e-high</text><circle cx="99.0" cy="350.0" r="7" fill="#dc2626"><title>solo-e-low</title></circle><text x="109.0" y="342.0" class="tick">solo-e-low</text><circle cx="163.0" cy="327.5" r="7" fill="#9333ea"><title>solo-e-medium</title></circle><text x="173.0" y="319.5" class="tick">solo-e-medium</text><circle cx="86.6" cy="372.5" r="7" fill="#ea580c"><title>solo-e-none</title></circle><text x="96.6" y="364.5" class="tick">solo-e-none</text><circle cx="261.7" cy="282.5" r="7" fill="#0891b2"><title>solo-e-xhigh</title></circle><text x="271.7" y="274.5" class="tick">solo-e-xhigh</text><circle cx="410.5" cy="290.0" r="7" fill="#4b5563"><title>supervisor-w-high-s-high-r2</title></circle><text x="420.5" y="282.0" class="tick">supervisor-w-high-s-high-r2</text><circle cx="505.9" cy="297.5" r="7" fill="#2563eb"><title>supervisor-w-high-s-high-r5</title></circle><text x="515.9" y="289.5" class="tick">supervisor-w-high-s-high-r5</text><circle cx="474.7" cy="312.5" r="7" fill="#16a34a"><title>supervisor-w-high-s-low-r5</title></circle><text x="484.7" y="304.5" class="tick">supervisor-w-high-s-low-r5</text><circle cx="436.1" cy="312.5" r="7" fill="#dc2626"><title>supervisor-w-low-s-high-r5</title></circle><text x="446.1" y="304.5" class="tick">supervisor-w-low-s-high-r5</text><circle cx="312.5" cy="312.5" r="7" fill="#9333ea"><title>supervisor-w-medium-s-medium-r2</title></circle><text x="322.5" y="304.5" class="tick">supervisor-w-medium-s-medium-r2</text><circle cx="453.8" cy="305.0" r="7" fill="#ea580c"><title>supervisor-w-medium-s-medium-r5</title></circle><text x="463.8" y="297.0" class="tick">supervisor-w-medium-s-medium-r5</text><circle cx="111.0" cy="357.5" r="7" fill="#0891b2"><title>supervisor-w-none-s-none-r2</title></circle><text x="121.0" y="349.5" class="tick">supervisor-w-none-s-none-r2</text><circle cx="147.2" cy="365.0" r="7" fill="#4b5563"><title>supervisor-w-none-s-none-r5</title></circle><text x="157.2" y="357.0" class="tick">supervisor-w-none-s-none-r5</text><text x="460.0" y="442" text-anchor="middle" class="axis-label">Cost USD</text><text x="20" y="230.0" transform="rotate(-90 20 230.0)" text-anchor="middle" class="axis-label">Planned-job accuracy</text>
</svg>
