<svg xmlns="http://www.w3.org/2000/svg" width="920" height="460" viewBox="0 0 920 460" role="img" aria-label="Tokens vs planned-job accuracy">
<style>
text { font-family: -apple-system, BlinkMacSystemFont, "Segoe UI", sans-serif; fill: #111827; }
.title { font-size: 22px; font-weight: 700; }
.tick { font-size: 11px; }
.value { font-size: 12px; font-weight: 650; }
.axis-label { font-size: 13px; font-weight: 650; }
</style>
<rect width="100%" height="100%" fill="#ffffff"/>
<text x="24" y="34" class="title">Tokens vs planned-job accuracy</text>
<line x1="80" y1="380" x2="840" y2="380" stroke="#111827"/><line x1="80" y1="80" x2="80" y2="380" stroke="#111827"/><circle cx="80.0" cy="380.0" r="7" fill="#2563eb"><title>debate-e-medium-a3-r1</title></circle><text x="90.0" y="372.0" class="tick">debate-e-medium-a3-r1</text><circle cx="80.0" cy="380.0" r="7" fill="#16a34a"><title>debate-e-medium-a3-r3</title></circle><text x="90.0" y="372.0" class="tick">debate-e-medium-a3-r3</text><circle cx="80.0" cy="380.0" r="7" fill="#dc2626"><title>debate-e-medium-a6-r1</title></circle><text x="90.0" y="372.0" class="tick">debate-e-medium-a6-r1</text><circle cx="80.0" cy="380.0" r="7" fill="#9333ea"><title>debate-e-medium-a9-r1</title></circle><text x="90.0" y="372.0" class="tick">debate-e-medium-a9-r1</text><circle cx="80.0" cy="380.0" r="7" fill="#ea580c"><title>debate-e-medium-a9-r3</title></circle><text x="90.0" y="372.0" class="tick">debate-e-medium-a9-r3</text><circle cx="80.0" cy="380.0" r="7" fill="#0891b2"><title>debate-e-none-a3-r1</title></circle><text x="90.0" y="372.0" class="tick">debate-e-none-a3-r1</text><circle cx="80.0" cy="380.0" r="7" fill="#4b5563"><title>debate-e-none-a3-r3</title></circle><text x="90.0" y="372.0" class="tick">debate-e-none-a3-r3</text><circle cx="80.0" cy="380.0" r="7" fill="#2563eb"><title>debate-e-none-a6-r1</title></circle><text x="90.0" y="372.0" class="tick">debate-e-none-a6-r1</text><circle cx="80.0" cy="380.0" r="7" fill="#16a34a"><title>debate-e-none-a6-r3</title></circle><text x="90.0" y="372.0" class="tick">debate-e-none-a6-r3</text><circle cx="80.0" cy="380.0" r="7" fill="#dc2626"><title>debate-e-none-a9-r1</title></circle><text x="90.0" y="372.0" class="tick">debate-e-none-a9-r1</text><circle cx="152.4" cy="335.0" r="7" fill="#9333ea"><title>sample-e-medium-a1</title></circle><text x="162.4" y="327.0" class="tick">sample-e-medium-a1</text><circle cx="601.1" cy="297.5" r="7" fill="#ea580c"><title>sample-e-medium-a6</title></circle><text x="611.1" y="289.5" class="tick">sample-e-medium-a6</text><circle cx="840.0" cy="305.0" r="7" fill="#0891b2"><title>sample-e-medium-a9</title></circle><text x="850.0" y="297.0" class="tick">sample-e-medium-a9</text><circle cx="88.7" cy="365.0" r="7" fill="#4b5563"><title>sample-e-none-a1</title></circle><text x="98.7" y="357.0" class="tick">sample-e-none-a1</text><circle cx="167.1" cy="365.0" r="7" fill="#2563eb"><title>sample-e-none-a6</title></circle><text x="177.1" y="357.0" class="tick">sample-e-none-a6</text><circle cx="209.5" cy="365.0" r="7" fill="#16a34a"><title>sample-e-none-a9</title></circle><text x="219.5" y="357.0" class="tick">sample-e-none-a9</text><circle cx="200.0" cy="267.5" r="7" fill="#dc2626"><title>self-critic-e-medium-r1</title></circle><text x="210.0" y="259.5" class="tick">self-critic-e-medium-r1</text><circle cx="310.9" cy="312.5" r="7" fill="#9333ea"><title>self-critic-e-medium-r3</title></circle><text x="320.9" y="304.5" class="tick">self-critic-e-medium-r3</text><circle cx="409.0" cy="312.5" r="7" fill="#ea580c"><title>self-critic-e-medium-r5</title></circle><text x="419.0" y="304.5" class="tick">self-critic-e-medium-r5</text><circle cx="99.3" cy="372.5" r="7" fill="#0891b2"><title>self-critic-e-none-r1</title></circle><text x="109.3" y="364.5" class="tick">self-critic-e-none-r1</text><circle cx="139.0" cy="380.0" r="7" fill="#4b5563"><title>self-critic-e-none-r5</title></circle><text x="149.0" y="372.0" class="tick">self-critic-e-none-r5</text><circle cx="181.1" cy="365.0" r="7" fill="#2563eb"><title>self-critic-e-none-r9</title></circle><text x="191.1" y="357.0" class="tick">self-critic-e-none-r9</text><circle cx="211.1" cy="305.0" r="7" fill="#16a34a"><title>solo-e-high</title></circle><text x="221.1" y="297.0" class="tick">solo-e-high</text><circle cx="100.5" cy="350.0" r="7" fill="#dc2626"><title>solo-e-low</title></circle><text x="110.5" y="342.0" class="tick">solo-e-low</text><circle cx="162.0" cy="327.5" r="7" fill="#9333ea"><title>solo-e-medium</title></circle><text x="172.0" y="319.5" class="tick">solo-e-medium</text><circle cx="88.7" cy="372.5" r="7" fill="#ea580c"><title>solo-e-none</title></circle><text x="98.7" y="364.5" class="tick">solo-e-none</text><circle cx="256.0" cy="282.5" r="7" fill="#0891b2"><title>solo-e-xhigh</title></circle><text x="266.0" y="274.5" class="tick">solo-e-xhigh</text><circle cx="418.9" cy="290.0" r="7" fill="#4b5563"><title>supervisor-w-high-s-high-r2</title></circle><text x="428.9" y="282.0" class="tick">supervisor-w-high-s-high-r2</text><circle cx="523.6" cy="297.5" r="7" fill="#2563eb"><title>supervisor-w-high-s-high-r5</title></circle><text x="533.6" y="289.5" class="tick">supervisor-w-high-s-high-r5</text><circle cx="502.8" cy="312.5" r="7" fill="#16a34a"><title>supervisor-w-high-s-low-r5</title></circle><text x="512.8" y="304.5" class="tick">supervisor-w-high-s-low-r5</text><circle cx="464.0" cy="312.5" r="7" fill="#dc2626"><title>supervisor-w-low-s-high-r5</title></circle><text x="474.0" y="304.5" class="tick">supervisor-w-low-s-high-r5</text><circle cx="327.6" cy="312.5" r="7" fill="#9333ea"><title>supervisor-w-medium-s-medium-r2</title></circle><text x="337.6" y="304.5" class="tick">supervisor-w-medium-s-medium-r2</text><circle cx="478.2" cy="305.0" r="7" fill="#ea580c"><title>supervisor-w-medium-s-medium-r5</title></circle><text x="488.2" y="297.0" class="tick">supervisor-w-medium-s-medium-r5</text><circle cx="145.6" cy="357.5" r="7" fill="#0891b2"><title>supervisor-w-none-s-none-r2</title></circle><text x="155.6" y="349.5" class="tick">supervisor-w-none-s-none-r2</text><circle cx="226.0" cy="365.0" r="7" fill="#4b5563"><title>supervisor-w-none-s-none-r5</title></circle><text x="236.0" y="357.0" class="tick">supervisor-w-none-s-none-r5</text><text x="460.0" y="442" text-anchor="middle" class="axis-label">Total tokens</text><text x="20" y="230.0" transform="rotate(-90 20 230.0)" text-anchor="middle" class="axis-label">Planned-job accuracy</text>
</svg>
